<svg height="511pt" viewBox="-70 0 511 511.9995" width="511pt" xmlns="http://www.w3.org/2000/svg"><path d="m185.59375 0c-102.0625 0-185.09375 83.03125-185.09375 185.09375 0 162.710938 145.726562 297.714844 174.9375 323.128906 5.789062 5.035156 14.519531 5.035156 20.308594 0 29.214844-25.414062 174.9375-160.417968 174.9375-323.128906.003906-102.0625-83.03125-185.09375-185.089844-185.09375zm.308594 496.90625c-.179688.15625-.441406.152344-.621094 0-28.351562-24.664062-169.78125-155.605469-169.78125-311.8125 0-93.789062 76.304688-170.09375 170.09375-170.09375s170.089844 76.304688 170.089844 170.09375c0 156.207031-141.429688 287.148438-169.78125 311.8125zm0 0"/><path d="m294.066406 100.828125c-2.542968-3.273437-7.253906-3.859375-10.527344-1.316406-3.269531 2.542969-3.855468 7.257812-1.3125 10.523437 14.910157 19.171875 23.578126 41.742188 25.359376 65.75h-43.699219c-2.59375 0-5.003907 1.34375-6.371094 3.546875l-17.46875 28.152344v-80.519531c0-7.378906-9.597656-10.316406-13.722656-4.191406l-35.945313 53.378906c-15.734375.871094-21.820312-2.257813-25.4375 3.527344l-17.480468 27.96875v-80.683594c0-7.378906-9.59375-10.316406-13.71875-4.191406l-35.945313 53.378906h-34.226563c4.59375-63.304688 57.5625-113.410156 122.023438-113.410156 28.257812 0 54.792969 9.355468 76.742188 27.054687 3.226562 2.601563 7.945312 2.09375 10.546874-1.132813 2.601563-3.222656 2.09375-7.945312-1.128906-10.542968-24.296875-19.589844-54.894531-30.378906-86.160156-30.378906-115.660156 0-178.710938 134.527343-106.984375 223.496093 2.605469 3.234375 7.332031 3.722657 10.546875 1.132813 3.222656-2.601563 3.730469-7.324219 1.128906-10.546875-16.417968-20.371094-25.640625-44.691407-26.882812-70.667969h38.382812c2.496094 0 4.828125-1.242188 6.222656-3.3125l24.453126-36.3125v82.269531c0 7.507813 9.875 10.351563 13.859374 3.972657l29.136719-46.617188h18.914063c2.496094 0 4.828125-1.242188 6.222656-3.3125l24.449219-36.3125v82.269531c0 7.515625 9.90625 10.355469 13.875 3.953125l29.140625-46.964844h39.746094c-2.984376 64.828126-56.65625 116.652344-122.210938 116.652344-27.464844 0-53.410156-8.886718-75.035156-25.699218-3.269532-2.542969-7.984375-1.953126-10.527344 1.316406-2.542969 3.269531-1.953125 7.980468 1.320312 10.523437 24.28125 18.882813 53.410157 28.863281 84.242188 28.863281 113.890625 0 178.113281-132.09375 108.472656-221.617187zm0 0"/></svg>